<?xml version="1.0" standalone="no"?>
<!DOCTYPE svg PUBLIC "-//W3C//DTD SVG 20010904//EN"
 "http://www.w3.org/TR/2001/REC-SVG-20010904/DTD/svg10.dtd">
<svg version="1.0" xmlns="http://www.w3.org/2000/svg"
 width="128.000000pt" height="128.000000pt" viewBox="0 0 128.000000 128.000000"
 preserveAspectRatio="xMidYMid meet">

<g transform="translate(0.000000,128.000000) scale(0.100000,-0.100000)"
fill="#000000" stroke="none">
<path d="M950 1241 c0 -36 -101 -59 -114 -26 -8 22 -34 18 -38 -6 -4 -29 -88
-57 -101 -34 -13 23 -37 18 -37 -7 0 -16 -12 -30 -40 -46 -37 -21 -42 -21 -56
-7 -20 20 -37 9 -30 -19 8 -31 -59 -84 -85 -68 -13 8 -20 8 -29 -3 -7 -9 -8
-15 0 -20 15 -10 13 -17 -21 -58 -26 -31 -33 -35 -50 -27 -15 9 -21 7 -26 -6
-3 -9 0 -20 7 -24 11 -7 9 -18 -10 -54 -21 -38 -28 -44 -47 -40 -18 5 -23 2
-23 -14 0 -11 5 -22 12 -24 9 -3 9 -15 -1 -51 -11 -39 -18 -47 -37 -47 -28 0
-32 -24 -8 -38 24 -14 11 -98 -16 -105 -25 -7 -26 -37 -1 -37 25 0 38 -96 16
-120 -21 -24 -19 -30 13 -30 33 -1 87 -70 77 -100 -8 -25 13 -36 32 -17 13 12
20 13 37 4 11 -7 22 -13 24 -14 2 0 -8 -26 -22 -55 -39 -83 -103 -102 -157
-49 -23 24 -29 38 -29 74 0 24 -5 58 -11 76 -23 65 -116 79 -159 24 -18 -24
-20 -38 -18 -132 2 -86 6 -106 18 -106 12 0 16 21 20 108 5 113 11 127 56 127
34 0 54 -31 54 -86 0 -94 63 -160 143 -150 57 7 86 31 115 97 25 53 30 58 58
59 23 0 33 -5 37 -20 6 -25 37 -27 37 -2 0 12 16 25 49 39 45 19 51 19 65 5
12 -13 19 -13 28 -4 9 9 9 15 1 23 -16 16 45 98 73 99 30 0 36 11 19 30 -22
25 -10 110 16 110 12 0 19 7 19 20 0 11 -7 20 -15 20 -19 0 -19 20 1 48 12 17
21 21 41 16 24 -6 25 -5 19 19 -5 22 -2 29 23 42 37 19 51 19 51 1 0 -26 20
-28 29 -3 13 32 94 46 122 21 16 -15 19 -15 24 -2 3 8 5 20 3 26 -2 6 14 26
36 46 29 27 44 34 62 30 26 -7 33 13 14 32 -18 18 11 105 37 115 28 10 30 29
4 36 -24 6 -48 100 -31 117 18 18 12 39 -11 33 -27 -7 -99 65 -92 92 6 25 -11
35 -27 16 -7 -8 -19 -15 -26 -15 -26 0 -14 -19 45 -77 61 -60 81 -102 81 -172
0 -83 -55 -173 -130 -211 -21 -10 -72 -23 -114 -29 -141 -17 -206 -84 -224
-233 -11 -85 -26 -120 -74 -165 -95 -92 -250 -85 -339 14 -51 57 -63 98 -57
207 20 345 301 625 654 653 46 3 84 9 84 13 0 4 -7 21 -16 38 -15 30 -34 43
-34 23z"/>
<path d="M795 1124 c-78 -19 -186 -73 -256 -128 -144 -113 -239 -294 -255
-484 -6 -72 -4 -85 18 -134 53 -115 170 -157 285 -103 75 34 139 138 96 152
-7 3 -18 -8 -24 -24 -53 -140 -254 -151 -319 -17 -20 40 -22 56 -17 128 23
313 262 553 589 591 74 8 130 -8 173 -50 66 -67 70 -167 9 -235 -40 -44 -66
-56 -156 -69 -115 -17 -190 -66 -232 -154 -31 -65 -36 -100 -15 -105 11 -2 19
10 28 40 32 108 114 170 245 187 55 6 89 17 116 35 138 91 119 307 -32 371
-47 19 -171 19 -253 -1z"/>
<path d="M916 1043 c-12 -12 -6 -33 9 -33 8 0 15 6 15 14 0 17 -14 28 -24 19z"/>
<path d="M636 979 c-60 -52 -58 -139 2 -139 32 0 52 16 52 43 0 11 11 22 30
29 42 14 56 43 35 74 -23 36 -74 33 -119 -7z m94 -17 c0 -4 -13 -13 -30 -19
-17 -6 -34 -23 -40 -37 -11 -30 -30 -35 -30 -7 0 26 36 69 63 73 24 4 37 1 37
-10z"/>
<path d="M828 999 c-21 -12 -23 -47 -6 -84 9 -19 9 -28 0 -37 -16 -16 -15 -61
0 -76 19 -19 63 -14 83 8 14 16 16 23 7 32 -9 9 -17 7 -32 -7 -30 -27 -48 -6
-24 30 16 24 16 29 1 60 -12 25 -13 36 -5 41 13 8 48 -31 48 -52 0 -14 21 -19
33 -8 9 9 -21 77 -40 92 -20 14 -42 15 -65 1z"/>
<path d="M1000 970 c-28 -28 -25 -64 7 -89 43 -34 93 -7 93 50 0 30 -31 59
-62 59 -10 0 -27 -9 -38 -20z m63 -34 c8 -20 -20 -43 -35 -28 -14 14 -3 42 16
42 7 0 16 -6 19 -14z"/>
<path d="M480 805 c0 -10 7 -15 18 -13 21 4 19 22 -2 26 -10 2 -16 -3 -16 -13z"/>
<path d="M548 773 c-8 -10 -18 -26 -21 -36 -4 -9 -15 -20 -24 -24 -27 -9 -54
-35 -64 -61 -5 -12 -17 -25 -26 -29 -56 -20 -73 -84 -28 -105 37 -17 115 18
137 61 9 18 31 40 49 49 43 22 78 100 61 137 -14 30 -61 34 -84 8z m40 -69
c-10 -31 -20 -41 -48 -50 -26 -9 -36 -19 -42 -42 -9 -33 -28 -49 -69 -54 -36
-5 -36 15 2 28 23 8 35 20 43 45 8 26 19 37 46 45 23 8 36 19 41 37 10 37 20
50 30 40 6 -6 5 -25 -3 -49z"/>
<path d="M714 729 c-10 -17 13 -36 27 -22 12 12 4 33 -11 33 -5 0 -12 -5 -16
-11z"/>
<path d="M570 470 c0 -13 5 -20 13 -17 6 2 12 10 12 17 0 7 -6 15 -12 18 -8 2
-13 -5 -13 -18z"/>
<path d="M432 454 c-24 -17 -30 -62 -10 -82 37 -37 113 12 88 57 -9 17 -39 41
-52 41 -2 0 -14 -7 -26 -16z m43 -42 c0 -18 -20 -15 -23 4 -3 10 1 15 10 12 7
-3 13 -10 13 -16z"/>
</g>
</svg>
