<?xml version="1.0" standalone="no"?>
<!DOCTYPE svg PUBLIC "-//W3C//DTD SVG 20010904//EN"
 "http://www.w3.org/TR/2001/REC-SVG-20010904/DTD/svg10.dtd">
<svg version="1.0" xmlns="http://www.w3.org/2000/svg"
 width="64.000000pt" height="64.000000pt" viewBox="0 0 64.000000 64.000000"
 preserveAspectRatio="xMidYMid meet">

<g transform="translate(0.000000,64.000000) scale(0.100000,-0.100000)"
fill="#000000" stroke="none">
<path d="M500 560 c-8 -5 -15 -22 -15 -37 -1 -15 -9 -52 -19 -81 -17 -50 -17
-57 -2 -111 22 -78 21 -87 -15 -143 -17 -26 -29 -55 -25 -63 3 -9 0 -15 -9
-15 -8 0 -15 5 -15 10 0 6 -7 10 -15 10 -12 0 -15 15 -15 73 0 39 -3 82 -6 94
-9 34 11 28 35 -10 11 -17 21 -27 21 -20 0 6 -5 15 -10 18 -6 3 -7 17 -4 29 4
17 0 28 -14 37 -22 16 -39 105 -20 111 15 5 1 57 -17 65 -21 8 -45 -15 -45
-43 0 -33 -18 -30 -26 4 -13 51 -44 72 -44 28 0 -16 7 -27 19 -31 20 -6 36
-38 27 -53 -3 -5 0 -53 5 -109 l10 -100 -31 -33 c-22 -24 -30 -41 -27 -57 3
-17 0 -23 -13 -23 -18 0 -21 10 -37 113 -4 32 -1 41 16 53 20 14 20 17 6 45
-17 31 -52 40 -61 14 -4 -8 -12 -15 -19 -15 -7 0 -33 -16 -59 -36 -45 -34 -47
-38 -41 -73 5 -29 1 -47 -15 -74 l-22 -37 162 0 c161 0 162 0 139 19 -23 19
-24 19 -5 40 28 30 36 26 36 -19 l0 -40 71 0 c70 0 71 0 67 25 -4 17 3 32 23
51 16 15 29 34 29 41 0 7 4 13 9 13 9 0 31 -70 34 -107 1 -20 7 -23 39 -23 29
0 36 3 32 15 -4 8 -12 15 -19 15 -9 0 -16 18 -21 48 -3 26 -13 60 -21 75 -12
24 -12 30 1 43 12 12 13 20 4 42 -14 32 -34 56 -25 30 4 -10 2 -28 -3 -40 -7
-17 -8 -9 -5 30 2 29 0 52 -5 52 -19 0 -10 -90 14 -138 13 -26 26 -68 30 -94
4 -28 14 -52 24 -58 14 -9 13 -10 -7 -8 -21 3 -26 12 -39 63 -8 34 -25 71 -38
86 -20 21 -25 38 -27 91 -1 36 -5 61 -10 54 -4 -6 -5 -36 -2 -66 l5 -55 -16
53 c-16 50 -16 55 5 111 12 32 19 65 16 73 -9 23 21 44 40 28 20 -16 19 -47
-1 -58 -14 -8 -15 -14 -5 -38 11 -28 11 -28 6 -3 -3 18 0 29 10 33 20 7 19 50
-1 70 -18 18 -23 19 -44 6z m-230 -56 c0 -8 -4 -12 -10 -9 -5 3 -10 10 -10 16
0 5 5 9 10 9 6 0 10 -7 10 -16z m91 0 c10 -12 10 -20 2 -33 -6 -10 -10 -38 -7
-62 l4 -44 -15 35 c-10 24 -14 27 -10 10 2 -14 5 -30 5 -37 0 -6 14 -16 30
-22 17 -5 30 -14 30 -20 0 -17 -78 28 -85 49 -4 11 -11 18 -16 15 -15 -10 -10
29 6 51 8 10 15 28 15 40 0 36 19 44 41 18z m-21 -169 c14 -4 17 -20 17 -102
0 -81 3 -98 19 -110 17 -12 16 -13 -8 -13 -24 0 -25 4 -31 65 -3 35 -13 78
-22 94 -8 17 -15 49 -14 73 0 38 2 40 11 21 6 -13 18 -25 28 -28z m-140 -2 c0
-5 3 -18 6 -30 5 -17 2 -23 -11 -23 -18 0 -18 -30 1 -132 4 -26 3 -38 -5 -38
-7 0 -9 5 -5 11 5 8 -23 86 -42 117 -1 2 -12 -2 -24 -8 -20 -11 -20 -13 -6
-29 9 -10 16 -29 16 -42 0 -14 5 -30 12 -37 9 -9 8 -12 -4 -12 -9 0 -18 12
-21 28 -4 16 -20 36 -42 50 -19 12 -35 30 -35 40 0 18 65 71 103 85 9 4 17 11
17 17 0 11 40 14 40 3z m367 -28 c-16 -17 -17 -14 -10 14 4 15 8 19 13 10 5
-6 3 -18 -3 -24z m-47 -60 c0 -7 -16 -33 -35 -58 -23 -30 -33 -52 -29 -64 6
-17 6 -17 -11 -1 -16 15 -16 18 14 61 17 25 31 58 31 73 0 22 2 25 15 14 8 -7
15 -18 15 -25z m-225 -75 c-17 -18 -23 -32 -19 -45 5 -13 3 -16 -7 -13 -25 8
-21 35 10 71 17 19 32 43 32 53 1 11 4 6 6 -10 3 -21 -2 -36 -22 -56z m-120
-48 c-9 -23 -35 5 -35 38 0 15 -7 33 -15 40 -12 10 -13 15 -4 21 15 9 62 -77
54 -99z m-105 44 c0 -8 -7 -19 -15 -26 -8 -7 -12 -16 -9 -21 3 -5 -2 -9 -11
-9 -9 0 -15 3 -13 8 3 4 11 21 18 39 13 31 30 36 30 9z m38 -34 c3 -17 -2 -22
-21 -22 -33 0 -40 10 -20 32 20 23 37 19 41 -10z"/>
<path d="M508 103 c6 -2 18 -2 25 0 6 3 1 5 -13 5 -14 0 -19 -2 -12 -5z"/>
<path d="M183 73 c82 -2 212 -2 290 0 78 1 12 3 -148 3 -160 0 -223 -2 -142
-3z"/>
</g>
</svg>
