<?xml version="1.0" standalone="no"?>
<!DOCTYPE svg PUBLIC "-//W3C//DTD SVG 20010904//EN"
 "http://www.w3.org/TR/2001/REC-SVG-20010904/DTD/svg10.dtd">
<svg version="1.0" xmlns="http://www.w3.org/2000/svg"
 width="64.000000pt" height="64.000000pt" viewBox="0 0 64.000000 64.000000"
 preserveAspectRatio="xMidYMid meet">

<g transform="translate(0.000000,64.000000) scale(0.100000,-0.100000)"
fill="#000000" stroke="none">
<path d="M360 615 c0 -32 24 -81 59 -119 l26 -28 -35 18 c-55 28 -138 25 -187
-8 -77 -51 -108 -136 -79 -218 l16 -45 -81 -76 c-73 -67 -81 -78 -75 -102 4
-18 15 -29 33 -33 24 -6 35 2 102 75 l76 81 44 -15 c49 -18 110 -13 148 11 36
23 37 16 3 -22 -35 -41 -50 -73 -50 -110 0 -38 24 -24 31 17 8 50 26 73 105
139 104 85 120 158 52 235 -38 44 -14 48 27 5 25 -26 30 -40 33 -96 l4 -66
-95 -91 c-69 -67 -97 -101 -102 -125 -4 -18 -5 -36 -2 -39 10 -9 27 8 27 28 0
17 7 19 59 19 54 0 60 -2 63 -22 4 -29 28 -36 28 -8 0 27 -22 70 -49 94 -20
18 -20 36 -1 36 17 0 63 -72 69 -107 7 -43 31 -57 31 -18 0 32 -30 93 -59 119
l-21 19 24 26 c32 33 56 91 56 133 0 40 -30 106 -58 132 l-21 19 34 39 c42 50
63 146 26 123 -6 -3 -11 -18 -11 -32 0 -14 -9 -40 -20 -58 -19 -31 -105 -105
-122 -105 -19 0 -5 20 38 55 53 43 84 89 84 123 0 30 -24 24 -28 -6 -3 -20 -9
-22 -62 -22 -53 0 -59 2 -62 22 -4 29 -28 36 -28 8 0 -27 22 -70 49 -94 20
-18 20 -36 1 -36 -17 0 -63 72 -69 107 -7 43 -31 57 -31 18z m168 -67 c-7 -19
-43 -21 -58 -3 -11 13 -8 15 25 15 25 0 35 -4 33 -12z m-127 -90 c44 -25 79
-85 79 -138 0 -87 -74 -160 -162 -160 -120 0 -201 144 -135 241 52 78 140 101
218 57z m119 -53 c10 -13 9 -15 -9 -15 -12 0 -21 6 -21 15 0 8 4 15 9 15 5 0
14 -7 21 -15z m40 -60 c0 -9 -9 -15 -24 -15 -13 0 -26 7 -30 15 -4 11 2 15 24
15 20 0 30 -5 30 -15z m0 -50 c0 -10 -10 -15 -30 -15 -22 0 -28 4 -24 15 4 8
17 15 30 15 15 0 24 -6 24 -15z m-40 -60 c-7 -8 -16 -15 -21 -15 -5 0 -9 7 -9
15 0 9 9 15 21 15 18 0 19 -2 9 -15z m-330 -61 c0 -14 -3 -14 -15 -4 -8 7 -15
14 -15 16 0 2 7 4 15 4 8 0 15 -7 15 -16z m-34 -25 c7 -12 -94 -119 -113 -119
-25 0 -12 25 39 77 55 56 63 60 74 42z m372 -56 c2 -9 -8 -13 -33 -13 -33 0
-36 2 -25 15 15 18 51 16 58 -2z"/>
<path d="M264 446 c-96 -43 -106 -183 -16 -242 35 -23 109 -23 144 0 82 54 84
179 3 232 -34 22 -94 27 -131 10z m132 -50 c28 -28 34 -42 34 -76 0 -34 -6
-48 -34 -76 -48 -48 -104 -48 -152 0 -28 28 -34 42 -34 76 0 60 50 110 110
110 34 0 48 -6 76 -34z"/>
<path d="M330 335 c-18 -19 -26 -22 -37 -13 -23 19 -28 -1 -5 -24 l22 -22 30
29 c29 27 40 55 22 55 -5 0 -19 -11 -32 -25z"/>
</g>
</svg>
