<?xml version="1.0" standalone="no"?>
<!DOCTYPE svg PUBLIC "-//W3C//DTD SVG 20010904//EN"
 "http://www.w3.org/TR/2001/REC-SVG-20010904/DTD/svg10.dtd">
<svg version="1.0" xmlns="http://www.w3.org/2000/svg"
 width="256.000000pt" height="256.000000pt" viewBox="0 0 256.000000 256.000000"
 preserveAspectRatio="xMidYMid meet">

<g transform="translate(0.000000,256.000000) scale(0.100000,-0.100000)"
fill="#000000" stroke="none">
<path d="M1090 2545 c-231 -38 -426 -124 -615 -270 -135 -105 -202 -188 -175
-220 21 -26 40 -17 94 42 28 31 84 82 124 115 l74 58 79 -71 c43 -40 79 -77
79 -84 0 -7 -23 -30 -51 -51 -62 -48 -89 -90 -89 -139 0 -48 26 -88 89 -143
68 -58 98 -112 111 -200 5 -40 17 -88 25 -108 38 -92 118 -164 183 -164 39 0
55 -22 54 -74 0 -53 -22 -89 -67 -110 -46 -22 -82 -20 -159 9 -82 31 -146 32
-263 4 -131 -31 -192 -24 -271 29 -75 52 -129 72 -190 72 l-45 0 6 123 c7 164
40 285 122 454 55 114 61 134 50 149 -47 65 -161 -146 -223 -411 -33 -143 -37
-390 -8 -525 111 -515 492 -895 1006 -1006 119 -26 381 -26 500 0 512 110 896
494 1006 1006 26 119 26 381 0 500 -109 507 -483 886 -986 1001 -115 26 -346
33 -460 14z m150 -669 c0 -536 2 -606 16 -620 12 -12 37 -16 104 -16 l89 0 30
-37 c17 -21 52 -87 77 -148 54 -129 83 -172 133 -192 97 -41 337 39 385 128
25 45 17 75 -34 134 -36 42 -70 95 -70 110 0 3 115 5 255 5 l255 0 0 -44 c0
-66 -26 -202 -56 -291 -53 -160 -153 -329 -267 -451 l-54 -58 -62 28 c-39 17
-107 35 -180 47 -161 25 -249 59 -336 129 -71 57 -82 60 -171 48 -85 -12 -104
-21 -104 -48 0 -34 21 -39 101 -28 l76 11 54 -43 c101 -80 226 -128 379 -145
65 -7 170 -40 170 -53 -1 -16 -114 -88 -225 -142 -172 -85 -279 -111 -480
-117 -179 -6 -281 7 -419 53 -88 28 -237 100 -276 132 -23 19 -23 22 -9 34 9
7 42 46 73 86 74 94 104 108 274 132 171 25 179 26 186 45 7 19 -2 42 -18 48
-15 6 -270 -28 -323 -42 -67 -19 -123 -61 -177 -134 -29 -40 -63 -80 -74 -91
-21 -18 -22 -18 -73 25 -147 123 -290 339 -354 534 -28 87 -60 253 -50 263 15
15 123 -20 185 -61 115 -77 146 -81 327 -41 130 28 150 27 271 -17 56 -20 68
-21 115 -10 126 28 201 161 154 274 -19 43 -39 58 -94 68 -26 5 -57 16 -69 24
-39 26 -75 99 -90 187 -22 130 -29 143 -120 233 -46 45 -84 90 -84 100 0 9 34
50 75 89 101 97 100 103 -10 216 l-85 86 97 46 c158 74 307 115 431 117 l52 1
0 -604z m252 589 c290 -50 567 -219 743 -453 143 -190 245 -460 245 -648 0
-43 0 -44 -34 -44 l-35 0 -6 58 c-9 81 -35 205 -47 220 -6 6 -18 12 -28 12
-36 0 -39 -21 -19 -115 10 -49 19 -109 19 -132 l0 -43 -115 0 -114 0 -6 38
c-37 240 -133 417 -302 557 -112 92 -259 153 -435 180 l-38 6 0 116 0 116 75
-6 c315 -27 585 -200 781 -500 88 -135 92 -139 115 -126 26 14 24 30 -15 108
-77 152 -226 315 -383 418 -148 97 -295 150 -476 173 l-97 12 0 34 c0 33 1 34
44 34 24 0 81 -7 128 -15z m-36 -465 c43 -11 117 -39 164 -62 69 -34 103 -60
180 -138 78 -77 104 -111 138 -180 42 -84 82 -217 82 -272 l0 -28 -197 2 -197
3 -8 38 c-24 117 -138 231 -255 255 l-38 8 -3 197 -2 197 28 0 c16 0 64 -9
108 -20z m-66 -471 c25 -11 60 -35 79 -52 32 -30 81 -118 81 -144 0 -10 -30
-13 -115 -13 l-115 0 0 115 c0 129 -1 127 70 94z m514 -331 c8 -24 36 -68 61
-98 25 -30 45 -60 45 -66 0 -36 -128 -95 -222 -102 -61 -4 -71 -2 -93 18 -13
12 -40 64 -60 114 -20 50 -48 110 -61 134 l-25 42 169 0 169 0 17 -42z"/>
<path d="M604 896 c-68 -30 -99 -131 -59 -192 71 -109 245 -65 247 63 0 47
-23 97 -57 119 -34 22 -94 27 -131 10z m98 -83 c46 -41 -6 -116 -65 -94 -39
15 -49 61 -20 93 20 22 61 23 85 1z"/>
<path d="M1417 1829 c-24 -14 -22 -56 3 -64 25 -8 50 10 50 36 0 24 -30 40
-53 28z"/>
<path d="M1633 1664 c-9 -24 10 -49 38 -49 20 0 24 5 24 30 0 25 -4 30 -28 33
-18 2 -29 -2 -34 -14z"/>
<path d="M1802 1618 c-19 -19 -14 -56 8 -63 43 -14 69 44 31 65 -24 13 -24 13
-39 -2z"/>
<path d="M1691 1452 c-13 -25 5 -52 34 -52 15 0 26 7 30 20 13 41 -44 70 -64
32z"/>
</g>
</svg>
