<?xml version="1.0" standalone="no"?>
<!DOCTYPE svg PUBLIC "-//W3C//DTD SVG 20010904//EN"
 "http://www.w3.org/TR/2001/REC-SVG-20010904/DTD/svg10.dtd">
<svg version="1.0" xmlns="http://www.w3.org/2000/svg"
 width="256.000000pt" height="256.000000pt" viewBox="0 0 256.000000 256.000000"
 preserveAspectRatio="xMidYMid meet">

<g transform="translate(0.000000,256.000000) scale(0.100000,-0.100000)"
fill="#000000" stroke="none">
<path d="M1246 2545 c-53 -19 -107 -64 -134 -113 l-23 -42 -164 0 -164 0 -16
30 c-20 38 -63 60 -118 60 -69 0 -127 -58 -127 -127 0 -67 67 -133 135 -133
39 0 92 33 113 70 l17 30 155 -2 155 -3 5 -112 c5 -123 16 -149 78 -188 26
-16 31 -27 32 -57 l0 -38 -72 0 c-131 0 -142 -9 -401 -310 -169 -196 -228
-271 -233 -296 -17 -93 81 -164 164 -120 15 8 97 85 182 170 85 86 158 156
163 156 4 0 6 -64 5 -142 l-3 -142 -220 -127 c-197 -114 -222 -126 -240 -115
-80 52 -189 1 -202 -92 -11 -81 45 -146 127 -146 76 0 130 53 130 126 0 33 3
35 203 151 l202 116 5 -191 c4 -164 7 -192 22 -201 12 -8 21 -7 32 2 14 12 16
44 16 225 l1 211 62 35 c66 37 82 65 51 91 -14 12 -23 10 -65 -14 l-49 -27 0
164 c0 159 -1 165 -22 180 -12 9 -29 16 -37 16 -8 0 -104 -89 -213 -197 -169
-169 -201 -196 -216 -187 -41 26 -23 56 180 291 108 125 209 240 225 255 35
33 89 48 175 48 60 0 69 3 87 26 13 17 21 41 21 65 l0 39 59 0 59 0 5 -57 c4
-43 1 -61 -9 -69 -18 -15 -18 -48 1 -64 12 -10 27 -5 81 25 55 31 72 36 102
31 69 -12 90 -28 177 -127 47 -55 93 -103 101 -106 18 -7 44 14 44 37 0 24
-178 220 -217 239 -18 9 -33 18 -33 21 0 3 40 28 89 57 77 44 92 49 108 38 36
-25 80 -27 127 -7 107 48 101 195 -9 238 -42 16 -48 16 -90 0 -52 -20 -85 -66
-85 -119 0 -35 -1 -36 -141 -116 -78 -45 -150 -81 -160 -81 -15 0 -19 7 -19
34 0 28 6 38 29 52 17 10 40 32 53 48 21 28 23 44 26 166 4 157 -4 195 -56
252 -70 77 -174 106 -266 73z m187 -98 c55 -41 69 -93 65 -227 -3 -108 -4
-113 -31 -136 -26 -22 -37 -24 -133 -24 -164 0 -189 25 -182 180 l3 75 42 3
c50 4 69 22 53 51 -7 14 -21 21 -40 21 -37 0 -38 9 -2 42 45 42 64 49 128 45
48 -2 69 -9 97 -30z m-759 -59 c31 -44 9 -88 -43 -88 -34 0 -51 17 -51 51 0
55 64 80 94 37z m1283 -244 c15 -24 15 -29 2 -53 -11 -20 -22 -26 -49 -26 -27
0 -38 6 -49 26 -13 24 -13 29 2 53 12 18 26 26 47 26 21 0 35 -8 47 -26z
m-1450 -1230 c15 -24 15 -29 2 -53 -11 -20 -22 -26 -49 -26 -27 0 -38 6 -49
26 -13 24 -13 29 2 53 12 18 26 26 47 26 21 0 35 -8 47 -26z"/>
<path d="M1600 1620 c-19 -19 -20 -33 -20 -335 l0 -315 -33 0 c-44 0 -70 -20
-65 -51 3 -21 9 -24 51 -27 l47 -3 0 -354 0 -353 25 -30 c17 -21 41 -34 76
-42 80 -19 56 -35 -59 -38 -98 -3 -102 -2 -111 20 -5 13 -28 214 -50 448 -45
464 -45 465 -109 484 -41 11 -88 -8 -106 -43 -9 -16 -31 -197 -56 -461 -26
-260 -47 -438 -54 -442 -15 -11 -188 -10 -205 1 -17 11 -6 18 58 37 81 24 81
25 81 285 0 239 -3 256 -47 247 -17 -3 -18 -22 -23 -227 l-5 -224 -55 -19
c-65 -21 -90 -48 -90 -93 0 -25 8 -40 31 -59 29 -25 36 -26 149 -26 123 0 158
8 178 40 7 11 30 207 52 442 23 233 43 433 46 446 4 21 28 30 37 15 3 -5 24
-206 48 -448 l43 -440 27 -28 c27 -27 29 -27 159 -27 126 0 132 1 155 25 24
24 29 40 25 80 -3 33 -39 63 -91 75 l-49 12 0 349 0 349 154 0 155 0 17 -29
c51 -87 182 -82 229 9 45 88 -21 190 -123 190 -35 0 -93 -37 -107 -68 -9 -21
-14 -22 -167 -22 l-158 0 0 277 0 278 163 -162 c89 -88 172 -166 184 -172 12
-6 38 -11 58 -11 52 0 105 53 105 105 0 48 -9 64 -102 173 -58 67 -86 92 -103
92 -20 0 -35 -17 -35 -39 0 -4 38 -52 85 -107 47 -54 85 -104 85 -111 0 -15
-28 -43 -42 -43 -6 0 -100 88 -208 195 -108 107 -204 195 -213 195 -9 0 -26
-9 -37 -20z m545 -664 c12 -18 13 -30 6 -49 -19 -50 -94 -44 -107 9 -14 56 69
89 101 40z"/>
</g>
</svg>
