<?xml version="1.0" standalone="no"?>
<!DOCTYPE svg PUBLIC "-//W3C//DTD SVG 20010904//EN"
 "http://www.w3.org/TR/2001/REC-SVG-20010904/DTD/svg10.dtd">
<svg version="1.0" xmlns="http://www.w3.org/2000/svg"
 width="128.000000pt" height="128.000000pt" viewBox="0 0 128.000000 128.000000"
 preserveAspectRatio="xMidYMid meet">

<g transform="translate(0.000000,128.000000) scale(0.100000,-0.100000)"
fill="#000000" stroke="none">
<path d="M92 1268 c-7 -7 -12 -26 -12 -43 0 -40 16 -55 57 -55 l33 0 0 -55 c0
-52 -1 -55 -25 -55 -38 0 -65 -33 -65 -80 0 -28 -7 -46 -25 -64 l-25 -26 2
-177 3 -178 183 -3 182 -2 -2 -243 -3 -242 -160 0 -160 0 -5 215 c-4 182 -7
215 -20 215 -13 0 -15 -32 -18 -214 -3 -280 -17 -261 199 -261 139 0 159 2
180 19 l24 19 0 432 c0 428 0 431 -21 448 -14 11 -24 33 -27 60 -6 53 -31 82
-69 82 -27 0 -28 1 -28 55 l0 55 56 0 c48 0 61 -4 91 -30 41 -36 62 -38 91 -7
32 34 28 50 -29 101 l-51 46 -172 0 c-120 0 -176 -4 -184 -12z m383 -63 c31
-26 37 -37 28 -46 -9 -9 -21 -4 -51 20 l-40 31 -146 0 c-123 0 -146 2 -146 15
0 13 24 15 158 15 l157 -1 40 -34z m-215 -90 c0 -52 -1 -55 -25 -55 -24 0 -25
3 -25 55 0 52 1 55 25 55 24 0 25 -3 25 -55z m88 -137 l3 -38 -115 0 -116 0 0
33 c0 19 3 37 7 41 4 3 54 5 112 4 l106 -3 3 -37z m40 -90 c7 -7 12 -44 12
-95 l0 -83 -165 0 -165 0 0 89 c0 62 4 91 13 94 27 12 293 7 305 -5z m12 -268
l0 -50 -165 0 -165 0 0 50 0 50 165 0 165 0 0 -50z"/>
<path d="M1155 1260 c-3 -11 -13 -20 -21 -20 -23 0 -16 -23 17 -55 29 -28 30
-28 35 -8 3 12 14 23 25 26 25 7 25 37 -1 37 -13 0 -20 7 -20 20 0 11 -6 20
-14 20 -8 0 -18 -9 -21 -20z"/>
<path d="M892 1168 c-7 -7 -12 -22 -12 -34 0 -15 -9 -24 -32 -30 -64 -19 -57
-104 9 -104 18 0 23 -5 23 -25 0 -15 9 -31 25 -41 23 -15 27 -15 50 0 16 10
25 26 25 41 0 20 5 25 23 25 29 0 57 29 57 58 0 23 -34 52 -62 52 -12 0 -18 8
-18 23 0 13 -5 28 -12 35 -15 15 -61 15 -76 0z m58 -63 c0 -33 2 -35 35 -35
46 0 49 -27 3 -32 -29 -3 -34 -7 -38 -37 -6 -43 -30 -54 -30 -14 0 37 -16 53
-53 53 -40 0 -29 24 14 30 30 4 34 9 37 38 5 46 32 43 32 -3z"/>
<path d="M553 890 c-16 -7 -24 -21 -29 -49 -4 -22 -15 -48 -25 -57 -18 -16
-19 -38 -19 -384 0 -343 1 -368 18 -383 17 -15 57 -17 365 -17 334 0 348 1
367 20 38 38 14 110 -38 110 -25 0 -27 3 -28 45 -1 32 -9 55 -29 81 -44 58
-71 64 -276 64 -166 0 -184 -2 -219 -21 -45 -26 -80 -83 -80 -133 0 -32 -3
-36 -25 -36 l-25 0 0 304 c0 264 2 307 16 320 12 13 41 16 152 16 75 0 143 -4
149 -8 9 -6 13 -61 15 -197 3 -172 5 -190 21 -193 16 -3 17 11 17 197 l0 200
-25 19 c-17 14 -25 30 -25 50 0 51 -28 62 -150 61 -58 0 -115 -4 -127 -9z
m245 -62 l3 -28 -120 0 c-120 0 -121 0 -121 23 0 13 3 27 7 31 4 3 57 5 117 4
l111 -3 3 -27z m272 -563 c49 -25 76 -99 46 -124 -9 -8 -87 -11 -262 -9 l-249
3 -3 38 c-3 32 2 43 31 72 l35 35 186 0 c148 0 193 -3 216 -15z m140 -200 l0
-25 -344 0 c-230 0 -347 4 -351 10 -4 6 -4 17 -1 25 5 13 58 15 351 15 l345 0
0 -25z"/>
<path d="M612 660 c-86 -53 -79 -176 13 -220 37 -18 49 -20 84 -10 79 21 120
107 84 177 -35 68 -117 92 -181 53z m132 -51 c49 -58 20 -134 -56 -146 -32 -5
-41 -1 -68 25 -40 40 -41 88 -4 126 39 38 93 36 128 -5z"/>
<path d="M665 560 c-25 -26 -26 -30 -11 -36 29 -11 74 44 48 60 -5 3 -22 -8
-37 -24z"/>
</g>
</svg>
