<?xml version="1.0" standalone="no"?>
<!DOCTYPE svg PUBLIC "-//W3C//DTD SVG 20010904//EN"
 "http://www.w3.org/TR/2001/REC-SVG-20010904/DTD/svg10.dtd">
<svg version="1.0" xmlns="http://www.w3.org/2000/svg"
 width="128.000000pt" height="128.000000pt" viewBox="0 0 128.000000 128.000000"
 preserveAspectRatio="xMidYMid meet">

<g transform="translate(0.000000,128.000000) scale(0.100000,-0.100000)"
fill="#000000" stroke="none">
<path d="M438 1155 c-91 -85 -222 -144 -405 -181 -19 -4 -22 -12 -28 -100 -28
-372 103 -640 375 -767 97 -45 152 -43 257 9 54 27 85 38 92 31 6 -6 15 3 24
25 8 20 19 38 24 41 5 3 31 -5 58 -18 27 -14 59 -25 72 -25 27 0 32 -34 8 -66
-8 -10 -15 -22 -15 -26 0 -13 28 -9 33 5 3 9 8 9 21 -2 22 -18 34 -6 18 19
-19 31 -15 70 7 70 10 0 44 13 75 28 62 32 71 29 82 -26 8 -38 24 -43 24 -8 0
19 4 23 20 19 14 -4 20 0 20 11 0 10 -8 16 -22 16 -12 0 -30 7 -39 16 -18 16
-17 18 5 58 13 22 27 56 31 73 8 38 30 43 71 17 29 -20 45 -10 21 13 -15 15
-15 17 1 29 23 17 6 31 -18 16 -11 -7 -31 -12 -44 -12 -21 0 -27 7 -35 38 -6
20 -20 52 -31 70 -24 39 -16 56 30 66 34 6 41 26 10 26 -13 0 -20 7 -20 20 0
30 -18 24 -25 -9 -11 -49 -25 -53 -87 -23 l-57 27 6 81 c3 44 2 119 -2 167 -6
79 -9 87 -28 91 -194 36 -309 86 -399 176 -33 33 -63 60 -66 60 -4 -1 -33 -25
-64 -55z m223 -108 c63 -37 143 -66 249 -90 l55 -12 3 -104 c3 -115 -7 -144
-38 -116 -23 21 -34 4 -15 -21 15 -20 20 -64 8 -64 -5 0 -17 -3 -28 -6 -20 -5
-21 -2 -17 93 2 54 0 113 -5 132 -9 33 -12 35 -78 49 -96 19 -186 64 -243 121
l-48 48 -48 -43 c-59 -54 -155 -102 -249 -124 -84 -20 -85 -21 -86 -153 -3
-270 115 -465 325 -536 58 -19 58 -19 113 1 31 12 80 37 109 56 29 19 54 33
55 31 1 -2 12 -18 24 -35 21 -30 21 -33 4 -48 -10 -9 -27 -16 -38 -16 -26 0
-35 -10 -23 -25 14 -17 -143 -90 -192 -89 -21 1 -74 20 -125 44 -157 76 -268
213 -318 395 -18 62 -33 342 -21 388 5 21 18 27 92 46 47 12 115 35 151 51 67
31 174 102 207 138 l18 21 47 -47 c26 -26 76 -64 112 -85z m-116 -46 c64 -59
159 -102 278 -126 24 -5 27 -10 29 -53 3 -59 -1 -160 -7 -187 -2 -11 -17 -28
-33 -37 -28 -17 -30 -17 -46 1 -9 9 -16 27 -16 39 0 13 -6 22 -16 22 -11 0
-13 -6 -9 -19 5 -16 0 -20 -22 -23 l-28 -4 37 -17 c20 -9 39 -21 42 -26 3 -5
-5 -33 -19 -63 -14 -29 -25 -61 -25 -71 0 -26 -25 -31 -59 -11 -34 20 -57 10
-27 -12 17 -12 17 -14 3 -20 -10 -3 -17 -12 -17 -20 0 -18 10 -17 34 1 11 8
30 15 43 15 36 0 30 -42 -9 -76 -46 -38 -136 -78 -179 -78 -55 -1 -158 56
-218 119 -101 107 -142 248 -133 462 2 49 4 53 30 58 109 24 250 92 296 144
11 11 21 21 24 21 3 0 24 -18 47 -39z m422 -343 c-3 -7 -5 -2 -5 12 0 14 2 19
5 13 2 -7 2 -19 0 -25z m74 -71 c66 -35 102 -93 107 -171 5 -74 -16 -125 -72
-174 -63 -55 -141 -66 -221 -28 -68 31 -79 46 -61 81 19 36 8 66 -32 85 -35
16 -37 26 -21 83 12 46 60 102 108 127 52 28 136 26 192 -3z m-271 -242 c7 -8
9 -23 5 -32 -6 -17 -7 -17 -21 1 -26 36 -12 64 16 31z"/>
<path d="M490 720 l0 -70 -70 0 c-90 0 -92 -18 -2 -22 l67 -3 3 -67 c2 -38 7
-68 12 -68 5 0 10 30 12 68 l3 67 68 3 c89 4 87 22 -3 22 l-70 0 0 70 c0 40
-4 70 -10 70 -6 0 -10 -30 -10 -70z"/>
<path d="M946 548 c-9 -12 -16 -30 -16 -40 0 -24 35 -58 60 -58 27 0 60 35 60
63 0 53 -75 77 -104 35z m68 -14 c22 -21 3 -56 -27 -52 -25 3 -34 32 -17 53
16 19 25 19 44 -1z"/>
<path d="M963 304 c-15 -39 38 -67 60 -32 8 12 7 21 -2 32 -17 21 -50 20 -58
0z m37 -14 c0 -5 -5 -10 -11 -10 -5 0 -7 5 -4 10 3 6 8 10 11 10 2 0 4 -4 4
-10z"/>
</g>
</svg>
