<?xml version="1.0" standalone="no"?>
<!DOCTYPE svg PUBLIC "-//W3C//DTD SVG 20010904//EN"
 "http://www.w3.org/TR/2001/REC-SVG-20010904/DTD/svg10.dtd">
<svg version="1.0" xmlns="http://www.w3.org/2000/svg"
 width="256.000000pt" height="256.000000pt" viewBox="0 0 256.000000 256.000000"
 preserveAspectRatio="xMidYMid meet">

<g transform="translate(0.000000,256.000000) scale(0.100000,-0.100000)"
fill="#000000" stroke="none">
<path d="M1050 2544 c-68 -25 -172 -97 -234 -165 -81 -87 -72 -122 30 -112 47
5 57 2 119 -36 140 -84 237 -101 330 -57 28 12 56 30 64 39 28 34 81 -29 81
-96 l0 -35 -82 -12 c-376 -55 -678 -346 -743 -715 -20 -114 -19 -179 1 -199
18 -19 20 -19 45 -6 15 9 19 22 19 63 1 125 48 287 116 399 l36 59 36 -27 c59
-43 112 -97 129 -128 22 -42 11 -110 -31 -195 -41 -80 -44 -106 -17 -121 32
-17 46 -3 92 93 53 112 63 190 31 253 -19 38 -112 133 -162 166 l-25 16 45 47
c39 40 150 125 164 125 2 0 16 -21 32 -47 61 -106 163 -183 241 -183 63 0 133
22 195 62 66 43 64 43 190 22 50 -8 98 10 151 57 l45 39 44 -38 c24 -20 61
-56 81 -78 l37 -41 -31 -39 c-17 -22 -51 -79 -76 -129 -69 -137 -66 -135 -197
-135 -125 0 -163 -8 -218 -46 -106 -74 -189 -304 -109 -304 25 0 36 16 55 82
17 60 63 127 109 162 25 18 47 22 165 26 177 6 181 9 265 175 24 50 54 101 65
115 l20 24 21 -34 c24 -41 81 -193 81 -219 0 -55 72 -71 78 -17 8 63 -49 213
-125 330 -137 213 -373 356 -640 391 -52 7 -53 7 -53 41 0 68 53 132 81 97 8
-9 37 -27 64 -39 93 -44 190 -27 330 57 62 38 72 41 119 36 107 -11 113 28 19
123 -160 159 -289 201 -432 139 -81 -34 -118 -87 -136 -191 -3 -21 -10 -38
-15 -38 -5 0 -22 -12 -39 -26 l-31 -26 -30 25 c-16 14 -34 27 -39 29 -6 1 -15
28 -21 58 -6 30 -22 73 -38 95 -55 81 -203 125 -302 89z m189 -92 c34 -17 81
-86 67 -99 -3 -3 -28 4 -56 15 l-51 21 -20 -20 c-11 -11 -19 -26 -17 -32 2 -7
32 -26 66 -43 55 -27 61 -33 47 -44 -9 -7 -38 -15 -66 -18 -58 -5 -117 14
-197 65 -29 18 -67 39 -84 46 l-30 12 61 45 c111 82 192 97 280 52z m659 10
c23 -9 70 -37 103 -62 l61 -45 -30 -12 c-17 -7 -55 -28 -84 -46 -81 -51 -139
-70 -199 -65 -28 3 -57 12 -65 20 -13 13 -10 17 32 33 63 24 88 49 74 75 -13
24 -37 25 -90 4 -49 -20 -57 -15 -40 26 31 74 145 109 238 72z m-292 -473
c111 -19 264 -77 264 -99 0 -5 -18 -22 -40 -36 -31 -21 -47 -25 -72 -20 -18 4
-61 9 -96 13 -61 5 -66 4 -115 -30 -59 -41 -125 -67 -169 -67 -63 0 -134 57
-186 149 l-22 39 62 21 c123 40 258 51 374 30z"/>
<path d="M2190 1224 c-20 -8 -108 -87 -202 -181 l-167 -167 -20 26 c-43 54
-68 58 -331 58 l-243 0 -47 44 c-102 96 -253 137 -389 105 -94 -21 -153 -59
-274 -178 l-117 -115 -33 32 c-18 18 -40 32 -48 32 -19 0 -199 -181 -199 -200
0 -20 661 -680 680 -680 19 0 200 180 200 200 0 8 -14 29 -32 47 l-32 33 25
26 c50 54 53 54 406 54 180 0 347 5 371 10 101 24 129 46 401 314 270 268 301
306 301 376 0 41 -29 108 -56 132 -52 46 -132 59 -194 32z m136 -98 c37 -37
43 -70 20 -114 -8 -15 -126 -138 -263 -273 -181 -179 -262 -252 -298 -270 -49
-24 -54 -24 -415 -29 -399 -5 -385 -3 -453 -68 l-37 -36 -213 212 -212 213
112 110 c143 140 188 163 318 164 77 0 98 -4 148 -27 31 -15 81 -50 110 -77
l54 -51 257 0 257 0 24 -25 c30 -29 32 -74 6 -106 l-19 -24 -313 -5 c-283 -5
-313 -7 -323 -22 -8 -13 -8 -23 0 -35 10 -17 37 -18 330 -18 l319 0 34 24 c19
14 43 45 56 75 18 39 64 92 197 222 95 95 182 177 193 183 38 20 75 13 111
-23z m-1711 -636 l290 -290 -53 -52 -52 -53 -292 292 -293 293 50 50 c27 27
52 50 55 50 3 0 136 -130 295 -290z"/>
</g>
</svg>
