<?xml version="1.0" encoding="utf-8"?>
<!-- Generator: Adobe Illustrator 21.0.0, SVG Export Plug-In . SVG Version: 6.00 Build 0)  -->
<svg version="1.1" id="Layer_1" xmlns="http://www.w3.org/2000/svg" xmlns:xlink="http://www.w3.org/1999/xlink" x="0px" y="0px"
	 viewBox="0 0 512 512" style="enable-background:new 0 0 512 512;" xml:space="preserve">
<style type="text/css">
	.st0{fill:#141F38;}
</style>
<title>player-news-outline</title>
<path class="st0" d="M472.6,26.3H39.4C17.7,26.3,0,43.9,0,65.6v301.9v6.6v72.2c0,21.7,17.7,39.4,39.4,39.4h433.2
	c21.7,0,39.4-17.7,39.4-39.4v-72.2v-6.6V65.6C512,43.9,494.3,26.3,472.6,26.3z M498.9,446.4c0,14.5-11.8,26.3-26.3,26.3H39.4
	c-14.5,0-26.3-11.8-26.3-26.3v-65.6h130c0,0,0,0,0,0h225.7c0,0,0,0,0,0h130V446.4z M145.6,351.2c7-19.6,19.4-36.5,35.2-49.2
	c6.3-5,13-9.4,20.3-13.1c16.5-8.4,35.2-13.1,54.8-13.1c0,0,0,0,0.1,0s0,0,0.1,0c19.6,0,38.3,4.7,54.8,13.1c7.2,3.7,14,8.1,20.3,13.1
	c15.8,12.8,28.2,29.6,35.2,49.2c1.9,5.4,1.5,11.3-1.2,16.4H146.8C144.1,362.4,143.7,356.6,145.6,351.2z M256,262.6
	C256,262.6,255.9,262.6,256,262.6c-29,0-52.5-23.6-52.5-52.5c0-29,23.6-52.5,52.5-52.5s52.5,23.6,52.5,52.5
	C308.5,239,285,262.5,256,262.6C256.1,262.6,256,262.6,256,262.6z M321.6,210.1c0-36.2-29.4-65.6-65.6-65.6s-65.6,29.4-65.6,65.6
	c0,24.1,13.1,45.2,32.5,56.6c-17,4.3-32.8,11.9-46.5,22.1H91.9V118.1h328.2v170.7h-84.5c-13.7-10.2-29.5-17.8-46.5-22.1
	C308.5,255.3,321.6,234.2,321.6,210.1z M379.3,367.6c2-6.8,1.9-14-0.6-20.8c-6.1-17.1-15.8-32.2-28.1-44.8h76c3.6,0,6.6-2.9,6.6-6.6
	V111.6c0-3.6-2.9-6.6-6.6-6.6H85.3c-3.6,0-6.6,2.9-6.6,6.6v183.8c0,3.6,2.9,6.6,6.6,6.6h76c-12.3,12.6-22,27.8-28.1,44.8
	c-2.4,6.8-2.6,14.1-0.6,20.8H13.1V65.6c0-14.5,11.8-26.3,26.3-26.3h433.2c14.5,0,26.3,11.8,26.3,26.3v301.9H379.3z M452.9,420.1
	c3.6,0,6.6,2.9,6.6,6.6s-2.9,6.6-6.6,6.6H216.6c-3.6,0-6.6-2.9-6.6-6.6s2.9-6.6,6.6-6.6H452.9z M188.9,420.1c3.6,0,6.6,2.9,6.6,6.6
	s-2.9,6.6-6.6,6.6H58.6c-3.6,0-6.6-2.9-6.6-6.6s2.9-6.6,6.6-6.6H188.9z"/>
</svg>
